<svg viewBox="0 0 113.92 113.92" xmlns="http://www.w3.org/2000/svg"><defs><clipPath id="a"><path d="M230.89 51.977L181.148 2.238a7.335 7.335 0 00-10.374 0l-10.329 10.33 13.102 13.103c3.046-1.028 6.537-.339 8.964 2.088a8.72 8.72 0 012.07 9.02l12.628 12.628c3.055-1.053 6.58-.373 9.02 2.071a8.726 8.726 0 010 12.345 8.73 8.73 0 01-14.25-9.494l-11.777-11.777v30.99a8.805 8.805 0 012.308 1.652c3.41 3.409 3.41 8.933 0 12.348-3.41 3.409-8.938 3.409-12.345 0-3.41-3.415-3.41-8.939 0-12.348a8.736 8.736 0 012.859-1.905V42.01a8.636 8.636 0 01-2.859-1.905 8.728 8.728 0 01-1.88-9.544l-12.916-12.918-34.106 34.104a7.339 7.339 0 000 10.378l49.742 49.74a7.338 7.338 0 0010.376 0l49.509-49.509a7.341 7.341 0 000-10.379" fill="#f03c2e"/></clipPath></defs><g transform="translate(-119.118 -.089)" clip-path="url(#a)"><path d="M230.44-10.813l-49.742-49.739a7.335 7.335 0 00-10.374 0c-16.502 16.504-33.007 33.006-49.51 49.509a7.339 7.339 0 000 10.378l49.742 49.739a7.338 7.338 0 0010.376 0L230.441-.434a7.342 7.342 0 000-10.379" fill="#ff8080"/><path d="M293.39 51.928L243.648 2.189a7.336 7.336 0 00-10.374 0c-16.502 16.504-33.007 33.006-49.51 49.509a7.339 7.339 0 000 10.378l49.742 49.739a7.338 7.338 0 0010.376 0l49.509-49.508a7.342 7.342 0 000-10.379" fill="#8dd35f"/><path d="M167.44 51.521L117.698 1.782a7.335 7.335 0 00-10.374 0c-16.502 16.504-33.007 33.006-49.51 49.509a7.339 7.339 0 000 10.378l49.742 49.739a7.338 7.338 0 0010.376 0L167.441 61.9a7.342 7.342 0 000-10.379" fill="#80b3ff"/><path d="M230.13 114.12l-49.742-49.739a7.335 7.335 0 00-10.374 0c-16.502 16.504-33.007 33.006-49.51 49.509a7.339 7.339 0 000 10.378l49.742 49.739a7.338 7.338 0 0010.376 0l49.509-49.508a7.342 7.342 0 000-10.379" fill="#ffe680"/></g></svg>
