<svg viewBox="0 0 111.84 135.38" xmlns="http://www.w3.org/2000/svg"><path d="M107.78 106.8a.005.005 0 01-.003-.005c-.958-1.081-1.414-3.085-1.905-5.22-.489-2.134-1.037-4.435-2.789-5.926l-.011-.01a6.99 6.99 0 00-2.151-1.296c2.435-7.221 1.481-14.413-.978-20.91-3.016-7.976-8.283-14.925-12.305-19.678-4.503-5.68-8.906-11.071-8.819-19.035C78.953 22.567 80.155.029 58.768-.001a33.501 33.501 0 00-2.722.111c-23.9 1.923-17.56 27.174-17.915 35.628-.438 6.184-1.691 11.057-5.944 17.101-4.995 5.94-12.031 15.556-15.362 25.567-1.572 4.723-2.32 9.538-1.63 14.096-.216.194-.421.398-.619.606-1.466 1.567-2.55 3.464-3.757 4.741-1.129 1.127-2.735 1.554-4.503 2.187-1.767.634-3.707 1.569-4.884 3.828 0 0 0 .002-.002.002-.002.003-.003.008-.006.011-.554 1.034-.734 2.15-.734 3.281 0 1.047.154 2.107.311 3.128.325 2.124.655 4.133.217 5.494-1.397 3.824-1.578 6.467-.593 8.386.988 1.923 3.016 2.77 5.309 3.25 4.586.956 10.797.719 15.69 3.314l.422-.794-.417.795c5.24 2.74 10.552 3.713 14.789 2.745 3.074-.701 5.568-2.531 6.849-5.347 3.315-.016 6.952-1.42 12.779-1.741 3.953-.318 8.891 1.405 14.571 1.089.148.616.363 1.209.657 1.772l.009.016c2.202 4.403 6.292 6.417 10.653 6.073 4.365-.344 9.006-2.918 12.76-7.382l-.689-.578.693.571c3.577-4.337 9.512-6.134 13.45-8.508 1.967-1.187 3.563-2.673 3.688-4.832.122-2.157-1.145-4.575-4.058-7.809" fill="#202020"/><g fill="#ffcd00"><path d="M110.04 114.51c-.076 1.332-1.04 2.322-2.822 3.395-3.56 2.147-9.871 4.016-13.9 8.897-3.501 4.165-7.768 6.452-11.526 6.749-3.757.296-6.999-1.263-8.912-5.099l-.003-.008-.004-.01c-1.187-2.257-.693-5.816.306-9.571s2.435-7.612 2.627-10.745v-.009c.202-4.015.428-7.522 1.102-10.228.675-2.707 1.737-4.538 3.619-5.568.088-.047.175-.093.262-.136.212 3.477 1.935 7.025 4.977 7.791 3.33.878 8.129-1.979 10.156-4.309.405-.016.8-.037 1.183-.046 1.779-.043 3.268.06 4.793 1.392l.01.008c1.171.992 1.728 2.867 2.211 4.966.483 2.101.867 4.387 2.317 6.018l.001.001.001.004c2.785 3.088 3.68 5.175 3.602 6.508M42.373 124.35l-.001.009v.012c-.322 4.219-2.702 6.517-6.357 7.352-3.652.835-8.606.003-13.552-2.583l-.005-.002c-5.473-2.899-11.983-2.61-16.16-3.483-2.088-.436-3.452-1.092-4.077-2.31-.624-1.22-.639-3.346.69-6.971l.006-.016.005-.016c.658-2.028.171-4.247-.148-6.33-.319-2.081-.475-3.977.236-5.296l.007-.013c.91-1.755 2.246-2.383 3.902-2.976 1.659-.595 3.624-1.062 5.175-2.618l.01-.009.008-.007c1.434-1.514 2.512-3.412 3.773-4.758 1.064-1.137 2.129-1.89 3.734-1.901a6.125 6.125 0 01.95.075c2.131.322 3.988 1.811 5.778 4.238l5.167 9.417.002.005.003.003c1.374 2.871 4.278 6.029 6.738 9.25 2.461 3.22 4.364 6.453 4.116 8.928M68.141 36.565c-.415-.813-1.263-1.586-2.705-2.178l-.003-.001-.005-.002c-3-1.285-4.302-1.376-5.976-2.465-2.726-1.752-4.978-2.366-6.85-2.358a8.09 8.09 0 00-2.64.448c-2.28.785-3.794 2.421-4.742 3.319l-.002.002-.001.003c-.187.177-.427.338-1.008.764-.585.427-1.463 1.071-2.725 2.018-1.122.841-1.487 1.937-1.098 3.22.386 1.283 1.624 2.763 3.887 4.043l.003.003.005.002c1.404.825 2.364 1.938 3.465 2.823.551.442 1.13.837 1.828 1.135.697.298 1.512.5 2.531.56 2.392.139 4.154-.579 5.708-1.469 1.558-.889 2.877-1.976 4.391-2.467l.003-.002.003-.001c3.103-.969 5.316-2.921 6.008-4.776.347-.928.337-1.808-.077-2.621"/></g><path d="M60.269 41.145c-2.468 1.287-5.352 2.847-8.419 2.847s-5.489-1.417-7.231-2.798c-.872-.69-1.579-1.376-2.112-1.875-.925-.73-.815-1.755-.435-1.725.638.08.734.919 1.135 1.294.543.508 1.224 1.166 2.047 1.82 1.648 1.305 3.845 2.575 6.596 2.575 2.746 0 5.951-1.612 7.908-2.709 1.108-.622 2.519-1.737 3.67-2.582.881-.646.849-1.425 1.576-1.34s.189.862-.829 1.751c-1.019.888-2.612 2.067-3.906 2.742" fill="#202020"/><g fill="#fff"><path d="M98.066 93.818c-.343-.013-.68-.011-1.009-.003l-.091.001c.848-2.676-1.027-4.651-6.024-6.911-5.181-2.278-9.31-2.053-10.007 2.571-.044.242-.08.489-.107.739a7.885 7.885 0 00-1.168.519c-2.432 1.332-3.761 3.747-4.5 6.711-.737 2.96-.95 6.538-1.152 10.561v.003c-.125 2.022-.958 4.758-1.8 7.656-8.488 6.055-20.267 8.678-30.27 1.851-.677-1.072-1.455-2.134-2.255-3.182-.511-.669-1.037-1.333-1.557-1.99 1.025.002 1.898-.167 2.604-.486.877-.399 1.492-1.037 1.798-1.857.61-1.64-.003-3.954-1.955-6.597-1.952-2.642-5.258-5.623-10.116-8.603V94.8c-3.57-2.221-5.564-4.942-6.499-7.896-.935-2.956-.805-6.152-.083-9.306 1.382-6.056 4.933-11.946 7.199-15.642.609-.448.218.834-2.295 5.499-2.25 4.264-6.459 14.105-.697 21.788.154-5.467 1.46-11.042 3.652-16.258 3.192-7.236 9.87-19.787 10.4-29.79.275.199 1.214.833 1.632 1.072l.003.001c1.225.721 2.145 1.776 3.336 2.734 1.195.959 2.686 1.788 4.94 1.919.216.012.428.019.634.019 2.324 0 4.135-.758 5.644-1.621 1.64-.938 2.95-1.976 4.192-2.38.001-.002.003-.002.004-.002 2.625-.82 4.71-2.272 5.896-3.964 2.039 8.036 6.78 19.644 9.828 25.308 1.62 3.004 4.843 9.39 6.235 17.083.882-.027 1.855.101 2.894.368 3.641-9.439-3.087-19.604-6.164-22.435-1.242-1.206-1.302-1.746-.685-1.721 3.336 2.953 7.719 8.888 9.313 15.589.727 3.056.882 6.269.103 9.44.379.157.768.329 1.161.516 5.844 2.845 8.004 5.32 6.966 8.697M68.416 27.307c.013 1.592-.262 2.948-.866 4.332-.344.789-.74 1.452-1.216 2.026a9.674 9.674 0 00-.501-.222c-.602-.257-1.133-.469-1.61-.649s-.849-.302-1.232-.435c.278-.336.825-.732 1.029-1.229.309-.75.46-1.482.489-2.355 0-.035.011-.065.011-.106a6.519 6.519 0 00-.337-2.283c-.256-.769-.581-1.321-1.052-1.781-.471-.459-.942-.667-1.507-.686-.027-.002-.052-.002-.079-.002-.53.002-.991.185-1.467.583-.501.418-.872.953-1.181 1.698-.308.745-.459 1.483-.489 2.361-.005.034-.005.064-.005.099-.011.483.021.925.095 1.354-1.086-.541-2.475-.936-3.435-1.165a11.791 11.791 0 01-.096-1.291v-.121c-.017-1.588.243-2.95.854-4.332.611-1.384 1.366-2.379 2.43-3.188 1.065-.808 2.112-1.179 3.351-1.192h.058c1.212 0 2.249.357 3.314 1.129 1.081.786 1.861 1.767 2.489 3.14.616 1.339.912 2.647.942 4.198 0 .041 0 .076.011.117M50.096 28.893a9.425 9.425 0 00-.467.147c-.868.3-1.557.63-2.223 1.071.065-.461.074-.928.023-1.451-.004-.028-.004-.052-.004-.08a6.336 6.336 0 00-.461-1.861c-.261-.61-.553-1.041-.936-1.373-.347-.3-.676-.439-1.038-.435-.037 0-.075.001-.112.004-.407.035-.745.234-1.066.624-.319.388-.528.871-.68 1.512a6.082 6.082 0 00-.128 1.988c0 .029.007.052.007.081.069.699.21 1.28.459 1.867.255.604.552 1.035.936 1.366.065.056.128.106.19.15-.397.308-.664.526-.993.766-.21.153-.459.336-.749.551-.633-.594-1.127-1.338-1.559-2.322-.512-1.161-.785-2.324-.867-3.697v-.011c-.076-1.373.059-2.554.436-3.775.378-1.222.883-2.105 1.617-2.831.733-.728 1.471-1.094 2.362-1.14.069-.003.137-.005.205-.005.806.002 1.526.27 2.271.865.807.646 1.418 1.471 1.93 2.634.513 1.163.785 2.326.861 3.699v.011c.037.576.032 1.119-.014 1.645"/></g><path d="M54.146 32.177c.102.328.63.273.935.431.268.138.483.44.784.448.287.009.735-.099.772-.384.05-.377-.5-.616-.854-.754-.455-.177-1.039-.267-1.466-.03-.098.055-.205.182-.171.289M51.026 32.177c-.102.328-.63.273-.936.431-.267.138-.482.44-.784.448-.287.009-.734-.099-.771-.384-.05-.377.5-.616.854-.754.455-.177 1.038-.267 1.466-.03.097.055.204.182.171.289" fill="#202020"/></svg>