<svg viewBox="0 0 299.72 148.65" xmlns="http://www.w3.org/2000/svg"><path d="M268.64 25.71c-3.311-.12-6.45 1.05-8.85 3.3-2.4 2.251-3.815 5.3-3.915 8.6-.23 6.82 5.111 12.559 11.916 12.81 3.31.1 6.465-1.07 8.878-3.32a12.252 12.252 0 003.901-8.6c.23-6.818-5.109-12.548-11.93-12.79zm2.02 13.512c-3.03 0-5.479-1.64-5.479-3.65 0-2.029 2.449-3.66 5.48-3.66 3.03 0 5.486 1.631 5.486 3.66 0 2.01-2.458 3.65-5.486 3.65zm28.799 14.729c.088-.07.295-.251.268-.42-.685-4.278-7.06-25.028-11.884-30.018-1.33-1.36-2.394-2.7-4.55-3.96C265.84 9.382 224.43 3.243 222.49 2.963c0 0-.194-.041-.33.09-.104.103-.124.3-.124.3s-.16 8.58-.184 9.54C217.623 11.473 186.88 1.542 158.06.542c-24.44-.86-60.033-4.02-107.2 24.98l-1.394.868C27.277 40.231 11.957 57.3 3.949 77.13c-2.512 6.24-5.89 20.32-2.542 33.568 1.442 5.791 4.13 11.611 7.756 16.82 8.194 11.77 21.944 19.58 36.749 20.898 20.904 1.87 36.733-7.519 42.363-25.099 3.87-12.13 0-29.928-14.84-39.008-12.07-7.39-25.048-5.71-32.577-.73-6.531 4.33-10.23 11.06-10.165 18.451.15 13.11 11.444 20.078 19.564 20.1 2.359 0 4.728-.41 7.4-1.28.95-.29 1.844-.65 2.83-1.26l.309-.18.194-.13-.065.038c1.85-1.26 2.964-3.311 2.964-5.51 0-.6-.084-1.209-.256-1.821-.959-3.32-4.239-5.328-7.638-4.71l-.46.11-.62.189-.902.31c-1.87.46-3.269.5-3.569.51-.95-.06-5.624-1.46-5.624-6.58v-.07c0-1.88.754-3.199 1.17-3.92 1.454-2.28 5.435-4.518 10.814-4.05 7.059.61 12.149 4.23 15.52 11.06 3.128 6.35 2.31 14.16-2.11 19.88-4.39 5.669-12.205 8.079-22.598 6.96-10.481-1.16-19.34-7.191-24.303-16.58-4.857-9.177-5.122-20.058-.686-28.417 10.609-20.03 30.649-19.82 41.637-17.921 16.26 2.82 34.758 17.819 41.319 35.139 1.06 2.76 1.6 4.95 2.071 6.95l.709 2.99 18.37 8.97c.394.192.528.258.685.14.19-.14.081-.53.081-.53-.114-.41-.38-.789-.805-5.93-.349-4.561-1.059-17.05 5.229-23.24 2.441-2.418 6.16-4.577 9.099-5.268 12.04-2.941 26.159-.912 39.507 14.54 6.91 7.98 10.279 11.618 11.97 13.248 0 0 .385.364.589.532.223.183.369.337.694.519.558.31 22.954 10.62 22.954 10.62s.266.132.462-.11c.193-.24.01-.479.01-.479-.15-.17-14.2-18.328-11.698-33.279 1.97-11.909 11.447-10.83 24.558-9.35 4.279.5 9.151 1.06 14.196 1.172 14.084.09 29.254-2.511 38.604-6.601 6.049-2.63 9.909-4.38 12.328-6.579.87-.72 1.32-1.89 1.79-3.15l.33-.831c.391-1.021.966-3.171 1.219-4.35.102-.519.22-1.027-.209-1.36-.392-.302-1.294.241-1.294.241-4.106 2.471-14.37 7.15-23.965 7.35-11.914.24-36.054-12.06-38.555-13.36-1.674-3.985-3.346-7.972-5.044-11.947 17.27 11.379 31.594 17.668 42.56 18.638 12.206 1.087 21.722-5.573 25.852-8.344.54-.36 1.08-.762 1.576-1.148zm-48.992-16.369c.175-4.73 2.155-9.12 5.614-12.34 3.46-3.23 7.974-4.9 12.708-4.75 9.76.35 17.43 8.59 17.095 18.339-.184 4.73-2.165 9.12-5.614 12.33-3.46 3.25-7.965 4.92-12.72 4.76-9.75-.36-17.41-8.58-17.083-18.338z" clip-rule="evenodd" fill-rule="evenodd" fill="#73ba25"/></svg>
