<svg viewBox="0 0 95.484 95.484" xmlns="http://www.w3.org/2000/svg"><path d="M47.744 0C21.374 0 0 21.374 0 47.74c0 26.369 21.376 47.744 47.744 47.744s47.74-21.376 47.74-47.744S74.112-.001 47.744 0zm15.623 14.83a6.134 6.134 0 015.15 9.203 6.139 6.139 0 01-8.385 2.246 6.136 6.136 0 013.235-11.449zm-15.623 6.54c2.395 0 4.716.32 6.923.919a8.623 8.623 0 004.217 6.156 8.616 8.616 0 007.432.576 26.289 26.289 0 017.746 17.027l-8.883.141c-.784-8.943-8.29-15.955-17.436-15.955l.002.002c-2.634 0-5.133.586-7.377 1.623l-4.322-7.762a26.269 26.269 0 0111.697-2.728zM33.12 25.794l4.56 7.623c-4.5 3.165-7.443 8.4-7.443 14.32s2.943 11.157 7.443 14.33l-4.56 7.623c-5.283-3.53-9.219-8.911-10.88-15.221a8.621 8.621 0 003.223-6.73 8.615 8.615 0 00-3.222-6.727c1.66-6.31 5.596-11.691 10.879-15.22zM16.826 41.604a6.139 6.139 0 11.004 12.277 6.139 6.139 0 01-.004-12.277zm48.354 7.69l8.882.136a26.3 26.3 0 01-7.746 17.031 8.616 8.616 0 00-7.431.576 8.61 8.61 0 00-4.217 6.155c-2.208.6-4.53.92-6.924.92-4.2 0-8.171-.982-11.697-2.731l4.322-7.762a17.44 17.44 0 007.375 1.627l-.003.002c9.148 0 16.655-7.012 17.439-15.955zM63.04 68.378a6.14 6.14 0 013.232 11.453 6.14 6.14 0 01-8.382-2.247v-.002a6.13 6.13 0 012.246-8.381 6.116 6.116 0 012.904-.823z" fill="#E95420" fill-rule="nonzero"/></svg>
