<svg fill="none" version="1.1" viewBox="0 0 176.46 176.46" xmlns="http://www.w3.org/2000/svg">
 <g transform="translate(-8.2715 -8.2715)" clip-path="url(#i)">
  <g clip-path="url(#h)">
   <mask id="d" x="8" y="8" width="177" height="177" maskUnits="userSpaceOnUse">
    <path d="m40.621 157.52-29.408-22.057c-0.9169-0.681-1.661-1.568-2.172-2.59s-0.77474-2.149-0.76987-3.291v-66.172c-0.00487-1.1423 0.25885-2.2697 0.76987-3.2912 0.51102-1.0216 1.2551-1.9087 2.172-2.5898l29.408-22.057c-0.79 0.7418-1.387 1.6652-1.7392 2.6901s-0.4489 2.1202-0.2818 3.1909v110.29c-0.1671 1.071-0.0704 2.166 0.2818 3.191s0.9492 1.948 1.7392 2.69z" fill="#fff"/>
    <path d="m181.46 38.895c-1.212-0.7959-2.631-1.2178-4.081-1.2131-0.939-0.0076-1.871 0.1702-2.741 0.5232-0.871 0.3529-1.663 0.8741-2.332 1.5336l-0.513 0.5156-58.672 56.246-32.462 31.137-30.034 28.784-0.5155 0.516c-0.6682 0.66-1.4604 1.182-2.331 1.536-0.8707 0.353-1.8026 0.531-2.7422 0.523-1.5906-3e-3 -3.1377-0.519-4.4114-1.472l-29.408-22.057c1.4941 1.122 3.3597 1.633 5.2171 1.428s3.5668-1.11 4.7803-2.531l32.645-37.9 26.799-31.1 46.946-54.52c0.681-0.8074 1.531-1.456 2.49-1.9003s2.003-0.67373 3.06-0.67204c1.45-0.00468 2.869 0.41722 4.08 1.2132z" fill="#fff"/>
    <path d="m181.46 154.1-44.114 29.41c-1.501 0.98-3.305 1.386-5.081 1.143-1.775-0.243-3.404-1.119-4.586-2.466l-47.02-54.555-26.799-31.173-32.645-37.867c-1.2243-1.4066-2.9353-2.2981-4.7897-2.4955-1.8543-0.1974-3.7147 0.314-5.2077 1.4314l29.408-22.057c1.2737-0.9528 2.8208-1.4692 4.4114-1.4724 0.9396-0.0079 1.8715 0.17 2.7422 0.5234 0.8706 0.3535 1.6628 0.8756 2.331 1.5362l0.5155 0.5156 30.034 28.785 32.462 31.136 58.672 56.246 0.513 0.515c0.669 0.66 1.461 1.181 2.332 1.534 0.87 0.353 1.802 0.531 2.741 0.523 1.45 5e-3 2.869-0.417 4.081-1.213z" fill="#fff"/>
    <path d="m184.73 45.032v102.94c1e-3 1.213-0.297 2.408-0.868 3.478-0.571 1.071-1.397 1.984-2.405 2.659l-44.114 29.41c1.008-0.675 1.834-1.589 2.405-2.66 0.57-1.071 0.868-2.266 0.867-3.48v-161.75c-0.016-1.2226-0.333-2.4223-0.923-3.4932s-1.435-1.98-2.46-2.6469l44.225 29.41c1.005 0.6777 1.83 1.5915 2.4 2.6614 0.571 1.07 0.87 2.2634 0.873 3.476z" fill="#fff"/>
   </mask>
   <g mask="url(#d)">
    <path d="m40.621 157.52-29.408-22.057c-0.9169-0.681-1.661-1.569-2.172-2.59-0.51102-1.022-0.77474-2.149-0.76987-3.291v-66.172c-0.00487-1.1423 0.25885-2.2697 0.76987-3.2912 0.51102-1.0216 1.2551-1.9087 2.172-2.5898l29.408-22.057c-0.79 0.7418-1.387 1.6652-1.7392 2.6901s-0.4489 2.1202-0.2818 3.1909v110.29c-0.1671 1.071-0.0704 2.166 0.2818 3.191s0.9492 1.948 1.7392 2.69z" fill="#5e438f"/>
    <g filter="url(#g)">
     <path d="m181.46 38.895c-1.211-0.7959-2.63-1.2178-4.08-1.2131-0.939-0.0076-1.871 0.1702-2.742 0.5232-0.87 0.3529-1.662 0.8741-2.331 1.5336l-0.513 0.5156-31.25 29.962-27.422 26.284-32.463 31.137-30.034 28.784-0.5155 0.516c-0.6682 0.66-1.4604 1.182-2.331 1.536-0.8707 0.353-1.8026 0.531-2.7422 0.523-1.5906-3e-3 -3.1377-0.519-4.4114-1.472l-29.408-22.057c1.494 1.122 3.3597 1.633 5.2171 1.428s3.5668-1.11 4.7803-2.531l16.471-19.115 16.173-18.785 26.799-31.101 46.946-54.52c0.682-0.8074 1.532-1.456 2.491-1.9003 0.958-0.44436 2.003-0.67373 3.059-0.67204 1.45-0.00468 2.869 0.41722 4.081 1.2132z" fill="url(#c)"/>
    </g>
    <g filter="url(#f)">
     <path d="m181.46 154.1-44.114 29.411c-1.5 0.98-3.304 1.385-5.08 1.142s-3.404-1.118-4.586-2.466l-47.021-54.555-26.799-31.173-16.173-18.749-16.471-19.118c-1.2243-1.4067-2.9354-2.2981-4.7897-2.4956-1.8543-0.1974-3.7147 0.314-5.2077 1.4313l29.408-22.057c1.2737-0.9528 2.8208-1.4692 4.4114-1.4723 0.9396-8e-3 1.8715 0.1699 2.7422 0.5234 0.8706 0.3534 1.6628 0.8755 2.331 1.5362l0.5155 0.5155 30.034 28.785 32.463 31.136 27.461 26.323 31.211 29.923 0.513 0.516c0.669 0.659 1.461 1.18 2.331 1.533 0.871 0.353 1.803 0.531 2.742 0.523 1.45 5e-3 2.869-0.417 4.08-1.213z" fill="url(#b)"/>
    </g>
    <g filter="url(#e)">
     <path d="m184.73 45.032v102.93c1e-3 1.214-0.297 2.408-0.868 3.479-0.571 1.07-1.397 1.984-2.405 2.659l-44.115 29.41c1.009-0.675 1.835-1.589 2.405-2.66 0.571-1.071 0.869-2.266 0.868-3.48v-161.75c-0.016-1.2225-0.333-2.4223-0.923-3.4932s-1.435-1.98-2.46-2.6469l44.225 29.41c1.005 0.6777 1.829 1.5915 2.4 2.6615 0.57 1.0699 0.87 2.2634 0.873 3.4759z" fill="url(#a)"/>
    </g>
   </g>
  </g>
 </g>
 <defs>
  <filter id="g" x="6.0319" y="4.3858" width="180.6" height="161.09" color-interpolation-filters="sRGB" filterUnits="userSpaceOnUse">
   <feFlood flood-opacity="0" result="BackgroundImageFix"/>
   <feColorMatrix in="SourceAlpha" result="hardAlpha" values="0 0 0 0 0 0 0 0 0 0 0 0 0 0 0 0 0 0 127 0"/>
   <feOffset dy="0.246095"/>
   <feGaussianBlur stdDeviation="0.246095"/>
   <feColorMatrix values="0 0 0 0 0 0 0 0 0 0 0 0 0 0 0 0 0 0 0.24 0"/>
   <feBlend in2="BackgroundImageFix" result="effect1_dropShadow"/>
   <feColorMatrix in="SourceAlpha" result="hardAlpha" values="0 0 0 0 0 0 0 0 0 0 0 0 0 0 0 0 0 0 127 0"/>
   <feOffset dy="1.29524"/>
   <feGaussianBlur stdDeviation="2.59048"/>
   <feColorMatrix values="0 0 0 0 0 0 0 0 0 0 0 0 0 0 0 0 0 0 0.22 0"/>
   <feBlend in2="effect1_dropShadow" result="effect2_dropShadow"/>
   <feBlend in="SourceGraphic" in2="effect2_dropShadow" result="shape"/>
  </filter>
  <filter id="f" x="6.0319" y="30.118" width="180.6" height="161.09" color-interpolation-filters="sRGB" filterUnits="userSpaceOnUse">
   <feFlood flood-opacity="0" result="BackgroundImageFix"/>
   <feColorMatrix in="SourceAlpha" result="hardAlpha" values="0 0 0 0 0 0 0 0 0 0 0 0 0 0 0 0 0 0 127 0"/>
   <feOffset dy="0.246095"/>
   <feGaussianBlur stdDeviation="0.246095"/>
   <feColorMatrix values="0 0 0 0 0 0 0 0 0 0 0 0 0 0 0 0 0 0 0.24 0"/>
   <feBlend in2="BackgroundImageFix" result="effect1_dropShadow"/>
   <feColorMatrix in="SourceAlpha" result="hardAlpha" values="0 0 0 0 0 0 0 0 0 0 0 0 0 0 0 0 0 0 127 0"/>
   <feOffset dy="1.29524"/>
   <feGaussianBlur stdDeviation="2.59048"/>
   <feColorMatrix values="0 0 0 0 0 0 0 0 0 0 0 0 0 0 0 0 0 0 0.22 0"/>
   <feBlend in2="effect1_dropShadow" result="effect2_dropShadow"/>
   <feBlend in="SourceGraphic" in2="effect2_dropShadow" result="shape"/>
  </filter>
  <filter id="e" x="121.69" y="-6.0586" width="78.583" height="205.12" color-interpolation-filters="sRGB" filterUnits="userSpaceOnUse">
   <feFlood flood-opacity="0" result="BackgroundImageFix"/>
   <feColorMatrix in="SourceAlpha" result="hardAlpha" values="0 0 0 0 0 0 0 0 0 0 0 0 0 0 0 0 0 0 127 0"/>
   <feOffset/>
   <feGaussianBlur stdDeviation="0.129524"/>
   <feColorMatrix values="0 0 0 0 0 0 0 0 0 0 0 0 0 0 0 0 0 0 0.24 0"/>
   <feBlend in2="BackgroundImageFix" result="effect1_dropShadow"/>
   <feColorMatrix in="SourceAlpha" result="hardAlpha" values="0 0 0 0 0 0 0 0 0 0 0 0 0 0 0 0 0 0 127 0"/>
   <feOffset/>
   <feGaussianBlur stdDeviation="7.77143"/>
   <feColorMatrix values="0 0 0 0 0 0 0 0 0 0 0 0 0 0 0 0 0 0 0.3 0"/>
   <feBlend in2="effect1_dropShadow" result="effect2_dropShadow"/>
   <feBlend in="SourceGraphic" in2="effect2_dropShadow" result="shape"/>
  </filter>
  <linearGradient id="c" x1="151.64" x2="20.614" y1="8.2715" y2="140.15" gradientUnits="userSpaceOnUse">
   <stop stop-color="#7252AA" offset="0"/>
   <stop stop-color="#7252AA" offset="1"/>
  </linearGradient>
  <linearGradient id="b" x1="24.815" x2="147.97" y1="40.437" y2="178.29" gradientUnits="userSpaceOnUse">
   <stop stop-color="#AE7FE2" offset="0"/>
   <stop stop-color="#9A70D4" offset="1"/>
  </linearGradient>
  <linearGradient id="a" x1="160.46" x2="160.46" y1="5.9358" y2="183.37" gradientUnits="userSpaceOnUse">
   <stop stop-color="#D59DFF" offset="0"/>
   <stop stop-color="#C18EF1" offset="1"/>
  </linearGradient>
  <clipPath id="i">
   <rect transform="translate(8.2715 8.2715)" width="176.46" height="176.46" fill="#fff"/>
  </clipPath>
  <clipPath id="h">
   <rect transform="translate(8.2715 8.2715)" width="176.46" height="176.46" fill="#fff"/>
  </clipPath>
 </defs>
</svg>
